{"title":"WWE.Friday.Night.Smackdown.2012.01.20.HDTV.XviD-vasylius","uid":6970033,"size":764020332,"categoryP":"video","categoryS":"tv_shows","magnet":"?xt=urn:btih:1797394cd31bbc93c04c1f9b8b3c6904837acff7&amp;dn=WWE.Friday.Night.Smackdown.2012.01.20.HDTV.XviD-vasylius&amp;tr=udp%3A%2F%2Ftracker.openbittorrent.com%3A80&amp;tr=udp%3A%2F%2Fopen.demonii.com%3A1337&amp;tr=udp%3A%2F%2Ftracker.coppersurfer.tk%3A6969&amp;tr=udp%3A%2F%2Fexodus.desync.com%3A6969","seeders":1,"leechers":0,"uploader":"HeroMaster","files":-1,"time":1327018568,"description":"WWE.Friday.Night.Smackdown.2012.01.20.HDTV.XviD-vasylius\n\nFormat : AVI\nFormat/Info : Audio Video Interleave\nFile size : 729 MiB\nDuration : 1h 16mn\nOverall bit rate : 1 335 Kbps\n\nVideo\nID : 0\nFormat : MPEG-4 Visual\nFormat profile : Advanced Simple@L5\nFormat settings, BVOP : 2\nFormat settings, QPel : No\nFormat settings, GMC : No warppoints\nFormat settings, Matrix : Default (H.263)\nMuxing mode : Packed bitstream\nCodec ID : XVID\nCodec ID/Hint : XviD\nDuration : 1h 16mn\nBit rate : 1 198 Kbps\nWidth : 624 pixels\nHeight : 352 pixels\nDisplay aspect ratio : 16:9\nFrame rate : 25.000 fps\nColor space : YUV\nChroma subsampling : 4:2:0\nBit depth : 8 bits\nScan type : Progressive\nCompression mode : Lossy\nBits/(Pixel*Frame) : 0.218\nStream size : 653 MiB (90%)\nWriting library : XviD 1.2.1 (UTC 2008-12-04)\n\nAudio\nID : 1\nFormat : AC-3\nFormat/Info : Audio Coding 3\nMode extension : CM (complete main)\nCodec ID : 2000\nDuration : 1h 16mn\nBit rate mode : Constant\nBit rate : 128 Kbps\nChannel(s) : 2 channels\nChannel positions : Front: L R\nSampling rate : 48.0 KHz\nBit depth : 16 bits\nCompression mode : Lossy\nStream size : 69.8 MiB (10%)\nAlignment : Aligned on interleaves\nInterleave, duration : 40 ms (1.00 video frame)\n\n\nPoster:\n\n &lt;a href=&quot;\nhttp://i.imgur.com/Zwhk6.jpg&quot; rel=&quot;nofollow&quot; target=&quot;_NEW&quot;&gt;\nhttp://i.imgur.com/Zwhk6.jpg&lt;/a&gt;\n\n\nScreens:\n\n &lt;a href=&quot;\nhttp://i.imgur.com/O9QAG.jpg&quot; rel=&quot;nofollow&quot; target=&quot;_NEW&quot;&gt;\nhttp://i.imgur.com/O9QAG.jpg&lt;/a&gt;\n\n &lt;a href=&quot;\nhttp://i.imgur.com/BftDc.jpg&quot; rel=&quot;nofollow&quot; target=&quot;_NEW&quot;&gt;\nhttp://i.imgur.com/BftDc.jpg&lt;/a&gt;\n\n &lt;a href=&quot;\nhttp://i.imgur.com/hp35l.png&quot; rel=&quot;nofollow&quot; target=&quot;_NEW&quot;&gt;\nhttp://i.imgur.com/hp35l.png&lt;/a&gt;\n\n\nENJOY!","torrent":{"xt":"urn:btih:1797394cd31bbc93c04c1f9b8b3c6904837acff7","amp;dn":"WWE.Friday.Night.Smackdown.2012.01.20.HDTV.XviD-vasylius","amp;tr":["udp%3A%2F%2Ftracker.openbittorrent.com%3A80","udp%3A%2F%2Fopen.demonii.com%3A1337","udp%3A%2F%2Ftracker.coppersurfer.tk%3A6969","udp%3A%2F%2Fexodus.desync.com%3A6969"],"infoHash":"1797394cd31bbc93c04c1f9b8b3c6904837acff7","infoHashBuffer":{"type":"Buffer","data":[23,151,57,76,211,27,188,147,192,76,31,155,139,60,105,4,131,122,207,247]},"announce":[],"urlList":[]}}